<svg viewBox="0 0 128 79" xmlns="http://www.w3.org/2000/svg">
  <path d="M76.5 35.5c-1.7-15.8-15-28-31.2-28-13.4 0-25 8.4-29.5 20.3C6.5 30 0 38.3 0 48.2 0 60.2 9.8 70 21.8 70h54.7V35.5z" fill="#0364B8"/>
  <path d="M88 30c-3.6 0-7 .9-10 2.5C73.4 16.8 58.4 5 41 5 22.5 5 7 17.9 3 35.2 1.1 38.9 0 43 0 47.5 0 60 10 70 22.5 70h74.2c14 0 25.3-11.3 25.3-25.3C122 32.4 110.6 21.5 96.8 21 94.2 25.3 91.5 28.5 88 30z" fill="#0078D4"/>
  <path d="M97 22c-1 0-1.9 0-2.9.1C90.3 9.3 78.3 0 64 0 53 0 43.3 5.5 37.5 14c2.2-.5 4.5-.8 6.9-.8 14.3 0 26.6 8.7 31.8 21.1 3.3-2 7.2-3.2 11.3-3.2 11.4 0 20.7 9.2 20.7 20.5 0 .6 0 1.2-.1 1.8 7.4-2.9 12.7-10.2 12.7-18.6.1-11.4-9.2-20.7-20.6-20.7z" fill="#1490DF"/>
  <path d="M76.5 41.4v28.7h44.6c3.6-2.5 5.9-6.6 5.9-11.4 0-7.4-6-13.4-13.4-13.4-1.7 0-3.4.3-4.9.9C106.4 38 99.5 32 91 32c-6.2 0-11.6 3-15 7.7-.2-.1-.3-.3-.5-.3z" fill="#28A8EA"/>
</svg>
